<svg preserveAspectRatio="none" overflow="visible" style="display: block;" width="348" height="20" viewBox="0 0 348 20" fill="none" xmlns="http://www.w3.org/2000/svg">
<path id="Vector" fill-rule="evenodd" clip-rule="evenodd" d="M208.267 9.1348C161.955 9.49002 115.619 10.8992 69.5082 13.418C47.5856 14.6158 22.1269 14.4661 0.864785 18.5497C-0.194654 18.7552 0.00711235 19.3717 0.0300439 19.4333C0.0759071 19.5596 0.268582 19.9793 1.11246 19.9999C1.20419 20.0028 1.85082 19.9441 2.09848 19.9236C8.37714 19.3951 14.6329 18.7787 20.9161 18.2796C42.6094 16.5505 64.3669 15.2441 86.1565 14.0991C115.078 12.5784 144.247 11.7682 173.246 11.134C189.119 10.7876 205.373 11.2485 221.297 10.5322C227.144 10.5117 232.992 10.5088 238.84 10.5205C263.285 10.5763 287.702 11.1693 312.106 11.9825C319.953 12.2438 325.938 12.5256 333.62 12.7164C336.537 12.7898 341.165 12.8397 344.384 12.872C344.857 12.8779 346.063 12.8837 346.563 12.8867C346.613 12.8925 346.664 12.8925 346.719 12.8925C346.911 12.8925 347.003 12.8837 347.021 12.8837C348.113 12.781 348.012 12.1204 347.985 12.0206C347.98 12.0001 347.815 11.4423 346.875 11.4217C346.65 11.4159 345.04 11.41 344.421 11.4042C341.22 11.3719 336.611 11.322 333.708 11.2515C326.039 11.0607 320.059 10.7789 312.225 10.5176C287.785 9.70439 263.33 9.10844 238.849 9.05266C235.858 9.04679 232.864 9.04385 229.873 9.04679C229.772 8.87945 229.548 8.69157 229.052 8.60937C228.589 8.53304 225.273 8.46553 223.994 8.398C214.523 7.89893 214.803 7.92242 204.383 7.51435C188.601 6.89491 186.198 6.75393 169.783 6.49266C139.968 6.01707 110.138 6.05528 80.3181 6.10225C65.596 6.12868 49.8328 6.76571 34.886 5.57675C39.8117 5.20685 44.7558 4.93677 49.6907 4.62852C66.5408 3.57753 83.4047 2.92577 100.324 2.4678C140.908 1.36984 181.556 0.932452 222.127 2.42967C213.491 2.48251 204.86 2.60577 196.223 2.68504C161.069 3.01384 125.576 2.76726 90.4951 4.47292C89.8668 4.50521 89.3944 4.85748 89.4403 5.25967C89.4862 5.6648 90.0411 5.96719 90.6694 5.93784C125.704 4.23218 161.147 4.4817 196.256 4.1529C209.299 4.03253 222.338 3.81531 235.381 3.8799C239.858 3.90338 244.334 4.00908 248.81 4.04431C249.695 4.05312 251.975 4.16468 252.3 4.11771C253.02 4.01496 253.176 3.67439 253.222 3.50705C253.245 3.40724 253.318 2.83184 252.218 2.62634C244.705 1.22307 230.841 1.28765 223.54 1.01169C182.469 -0.544236 141.316 -0.109762 100.227 0.99994C83.2671 1.46085 66.3619 2.11555 49.466 3.16947C43.5634 3.53644 37.647 3.85349 31.7674 4.34082C30.818 4.42009 28.6854 4.5346 27.6535 4.65497C27.2224 4.70487 26.9105 4.77528 26.7729 4.82519C26.2363 5.01895 26.14 5.30078 26.14 5.4916C26.1354 5.63839 26.2317 6.15507 27.3553 6.29599C44.4761 8.44199 63.1057 7.59947 80.3227 7.57011C110.125 7.52314 139.931 7.48493 169.728 7.96051C186.101 8.22179 188.496 8.35983 204.245 8.97927C205.8 9.03799 207.116 9.09077 208.267 9.1348Z" fill="#FF4F18"/>
</svg>
